<?xml version="1.0" encoding="UTF-8"?>
<svg width="15px" height="15px" viewBox="0 0 15 15" version="1.1" xmlns="http://www.w3.org/2000/svg" xmlns:xlink="http://www.w3.org/1999/xlink">
    <title>2874E26F-D901-4EC5-9F52-C0423847419C</title>
    <g id="Page-1" stroke="none" stroke-width="1" fill="none" fill-rule="evenodd">
        <g id="Modify-Program" transform="translate(-143.000000, -406.000000)" fill="#0075F4" fill-rule="nonzero">
            <g id="Group-9-Copy" transform="translate(129.000000, 391.000000)">
                <g id="Group-20" transform="translate(14.000000, 15.000000)">
                    <path d="M5.95748837,12.1875 C4.36224236,12.1875 3.06382979,10.9955978 3.06382979,9.53121185 L3.06382979,3.12503815 L1.87238199,3.12503815 C0.839511319,3.12503815 -5.41788836e-13,3.89556885 -5.41788836e-13,4.84371185 L-5.41788836e-13,13.2812118 C-5.41788836e-13,14.2293548 0.839511319,15 1.87238199,15 L10.3829372,15 C11.4158078,15 12.2553191,14.2293548 12.2553191,13.2812118 L12.2553191,12.1875 L5.95748837,12.1875 Z" id="Path"></path>
                    <path d="M14.9786818,1.71878815 C14.9786818,0.769386299 14.1405419,0 13.1064245,0 L5.95748837,0 C4.92324635,0 4.08510638,0.769386299 4.08510638,1.71878815 L4.08510638,9.53121185 C4.08510638,10.4806137 4.92324635,11.25 5.95748837,11.25 L13.1064245,11.25 C14.1405419,11.25 14.9786818,10.4806137 14.9786818,9.53121185 L14.9786818,1.71878815 Z" id="Path"></path>
                </g>
            </g>
        </g>
    </g>
</svg>