<?xml version="1.0" encoding="UTF-8"?>
<svg width="17px" height="16px" viewBox="0 0 17 16" version="1.1" xmlns="http://www.w3.org/2000/svg" xmlns:xlink="http://www.w3.org/1999/xlink">
    <title>323F0A0A-9480-487C-B05C-1DA2C421C537</title>
    <g id="Page-1" stroke="none" stroke-width="1" fill="none" fill-rule="evenodd">
        <g id="Modify-Program" transform="translate(-83.000000, -663.000000)" fill="#FFFFFF">
            <g id="Group-17-Copy" transform="translate(71.000000, 652.000000)">
                <g id="input-box" transform="translate(0.000000, 0.000000)">
                    <g id="Group-13" transform="translate(12.000000, 11.000000)">
                        <path d="M1.04848093,6.22074984 L15.8030143,7.01277515 C16.5898059,7.05501022 17.2182691,7.6834735 17.2605042,8.47026503 C17.2973343,9.15636748 16.770995,9.74242009 16.0848926,9.77925016 C16.0404667,9.78163495 15.9959449,9.78163495 15.9515191,9.77925016 L1.19698568,8.98722485 C0.410194149,8.94498978 -0.218269128,8.3165265 -0.260504202,7.52973497 C-0.297334273,6.84363252 0.22900499,6.25757991 0.915107446,6.22074984 C0.959533293,6.21836505 1.00405508,6.21836505 1.04848093,6.22074984 Z" id="Rectangle" transform="translate(8.500000, 8.000000) rotate(45.000000) translate(-8.500000, -8.000000) "></path>
                        <path d="M1.73903651,6.9070527 L15.4177185,6.17277923 C16.1419378,6.13390305 16.7605488,6.68948338 16.799425,7.41370264 C16.8019423,7.46059659 16.8019423,7.50759181 16.799425,7.55448576 C16.7548436,8.38498793 16.0914657,9.04836583 15.2609635,9.0929473 L1.5822815,9.82722077 C0.858062237,9.86609695 0.239451153,9.31051662 0.200574967,8.58629736 C0.198057693,8.53940341 0.198057693,8.49240819 0.200574967,8.44551424 C0.245156433,7.61501207 0.908534337,6.95163417 1.73903651,6.9070527 Z" id="Rectangle" transform="translate(8.500000, 8.000000) rotate(135.000000) translate(-8.500000, -8.000000) "></path>
                    </g>
                </g>
            </g>
        </g>
    </g>
</svg>