<?xml version="1.0" encoding="UTF-8"?>
<svg width="17px" height="17px" viewBox="0 0 17 17" version="1.1" xmlns="http://www.w3.org/2000/svg" xmlns:xlink="http://www.w3.org/1999/xlink">
    <title>4E65F9C3-7126-43E8-92FF-4746D3A82E9B</title>
    <g id="Page-1" stroke="none" stroke-width="1" fill="none" fill-rule="evenodd">
        <g id="Modify-Program" transform="translate(-82.000000, -518.000000)" fill="#BCBCBC">
            <g id="Group-17" transform="translate(71.000000, 506.000000)">
                <g id="Group-13" transform="translate(11.000000, 12.000000)">
                    <g id="Group-22" transform="translate(0.665243, 0.094402)">
                        <path d="M0.383237506,6.12634811 L15.1377709,6.91837342 C15.9245624,6.9606085 16.5530257,7.58907177 16.5952608,8.3758633 C16.6320908,9.06196576 16.1057516,9.64801836 15.4196491,9.68484843 C15.3752233,9.68723322 15.3307015,9.68723322 15.2862756,9.68484843 L0.531742252,8.89282312 C-0.255049276,8.85058805 -0.883512553,8.22212477 -0.925747627,7.43533324 C-0.962577698,6.74923079 -0.436238435,6.16317818 0.24986402,6.12634811 C0.294289868,6.12396332 0.338811658,6.12396332 0.383237506,6.12634811 Z" id="Rectangle" transform="translate(7.834757, 7.905598) rotate(45.000000) translate(-7.834757, -7.905598) "></path>
                        <path d="M1.07379308,6.81265097 L14.7524751,6.0783775 C15.4766943,6.03950132 16.0953054,6.59508165 16.1341816,7.31930091 C16.1366989,7.36619486 16.1366989,7.41319008 16.1341816,7.46008403 C16.0896001,8.2905862 15.4262222,8.95396411 14.5957201,8.99854557 L0.91703807,9.73281904 C0.192818812,9.77169522 -0.425792272,9.21611489 -0.464668458,8.49189563 C-0.467185732,8.44500168 -0.467185732,8.39800646 -0.464668458,8.35111251 C-0.420086992,7.52061034 0.243290912,6.85723244 1.07379308,6.81265097 Z" id="Rectangle" transform="translate(7.834757, 7.905598) rotate(135.000000) translate(-7.834757, -7.905598) "></path>
                    </g>
                </g>
            </g>
        </g>
    </g>
</svg>