<?xml version="1.0" encoding="UTF-8"?>
<svg width="19px" height="19px" viewBox="0 0 19 19" version="1.1" xmlns="http://www.w3.org/2000/svg" xmlns:xlink="http://www.w3.org/1999/xlink">
    <title>B8316659-F9B2-4A83-96C8-88300606F518</title>
    <g id="Page-1" stroke="none" stroke-width="1" fill="none" fill-rule="evenodd">
        <g id="Modify-Element-5" transform="translate(-615.000000, -658.000000)">
            <g id="Group-16" transform="translate(604.000000, 549.000000)">
                <g id="Group-19" transform="translate(11.000000, 82.000000)">
                    <g id="11900620631556279759" transform="translate(0.000000, 27.000000)">
                        <polygon id="Path" points="0 0 19 0 19 19 0 19"></polygon>
                        <path d="M3,13.247049 L3,15.6111651 C3,15.8289127 3.17108735,16 3.38883488,16 L5.75295098,16 C5.85404805,16 5.95514512,15.9611165 6.0251354,15.8833495 L14.5172893,7.39897236 L11.6010276,4.48271073 L3.11665047,12.9670879 C3.03888349,13.0448549 3,13.1381753 3,13.247049 Z M16.7725316,5.14373004 C17.0758228,4.84043883 17.0758228,4.35050687 16.7725316,4.04721566 L14.9527843,2.22746841 C14.6494931,1.9241772 14.1595612,1.9241772 13.85627,2.22746841 L12.4331343,3.65060408 L15.3493959,6.56686571 L16.7725316,5.14373004 Z" id="🔹-Icon-Color" fill="#BCBCBC" fill-rule="nonzero"></path>
                    </g>
                </g>
            </g>
        </g>
    </g>
</svg>