<?xml version="1.0" encoding="UTF-8"?>
<svg width="30px" height="30px" viewBox="0 0 30 30" version="1.1" xmlns="http://www.w3.org/2000/svg" xmlns:xlink="http://www.w3.org/1999/xlink">
    <title>Group</title>
    <g id="Page-1" stroke="none" stroke-width="1" fill="none" fill-rule="evenodd">
        <g id="order-page--display-by-address-2" transform="translate(-191.000000, -956.000000)">
            <g id="Group" transform="translate(191.000000, 956.000000)">
                <g id="Group-3" fill="#F0F0F0">
                    <circle id="Oval" cx="15" cy="15" r="15"></circle>
                </g>
                <g id="11900620631556279759" transform="translate(8.000000, 8.000000)">
                    <polygon id="Path" points="0 0 13 0 13 13 0 13"></polygon>
                    <path d="M2,10.6403277 L2,12.666713 C2,12.8533537 2.1466463,13 2.33328704,13 L4.35967227,13 C4.4463269,13 4.53298153,12.9666713 4.5929732,12.9000139 L11.8719622,5.6276906 L9.3723094,3.12803777 L2.09998611,10.4003611 C2.0333287,10.4670185 2,10.5470074 2,10.6403277 Z M13.8050271,3.69462575 C14.064991,3.43466185 14.064991,3.01472018 13.8050271,2.75475628 L12.2452437,1.19497292 C11.9852798,0.935009027 11.5653381,0.935009027 11.3053743,1.19497292 L10.0855437,2.4148035 L12.5851965,4.91445633 L13.8050271,3.69462575 Z" id="🔹-Icon-Color" fill="#006EF5" fill-rule="nonzero"></path>
                </g>
            </g>
        </g>
    </g>
</svg>