<?xml version="1.0" encoding="UTF-8"?>
<svg width="19px" height="20px" viewBox="0 0 19 20" version="1.1" xmlns="http://www.w3.org/2000/svg" xmlns:xlink="http://www.w3.org/1999/xlink">
    <title>12816330631600005541</title>
    <g id="Page-1" stroke="none" stroke-width="1" fill="none" fill-rule="evenodd">
        <g id="Mobile-consolidator-dashboard-completed-2" transform="translate(-20.000000, -223.000000)" fill="#006EF5" fill-rule="nonzero">
            <g id="12816330631600005541" transform="translate(29.391304, 233.000000) rotate(90.000000) translate(-29.391304, -233.000000) translate(20.000000, 224.000000)">
                <path d="M9.68472877,3.61674419 L9.68472877,0.627906977 C9.68472877,0.281123529 9.37915171,0 9.00220331,0 C8.6252549,0 8.31967784,0.281123529 8.31967784,0.627906977 L8.31967784,3.61674419 C7.10643684,3.91057855 6.26086957,4.91977198 6.26086957,6.07395349 C6.26086957,7.228135 7.10643684,8.23732843 8.31967784,8.53116279 L8.31967784,17.372093 C8.31967784,17.7188765 8.6252549,18 9.00220331,18 C9.37915171,18 9.68472877,17.7188765 9.68472877,17.372093 L9.68472877,8.53116279 C12.423931,7.88651163 12.423931,4.2572093 9.68472877,3.61674419 Z" id="Path"></path>
                <path d="M16.7196968,6.5427907 L16.7196968,0.627906977 C16.7196968,0.281123529 16.4148793,0 16.0388678,0 C15.6628563,0 15.3580388,0.281123529 15.3580388,0.627906977 L15.3580388,6.5427907 C14.1478134,6.83662506 13.3043478,7.84581849 13.3043478,9 C13.3043478,10.1541815 14.1478134,11.1633749 15.3580388,11.4572093 L15.3580388,17.372093 C15.3580388,17.7188765 15.6628563,18 16.0388678,18 C16.4148793,18 16.7196968,17.7188765 16.7196968,17.372093 L16.7196968,11.4572093 C19.470246,10.8125581 19.470246,7.18325581 16.7196968,6.5427907 Z" id="Path"></path>
                <path d="M3.41788073,11.0930233 L3.41788073,0.627906978 C3.41788073,0.28112353 3.11207037,0 2.73483417,0 C2.35759796,0 2.0517876,0.28112353 2.0517876,0.627906978 L2.0517876,11.0930233 C0.841848887,11.3896624 0,12.3969972 0,13.5481396 C0,14.6992819 0.841848887,15.7066167 2.0517876,16.0032558 L2.0517876,17.372093 C2.05178762,17.7188765 2.35759797,18 2.73483417,18 C3.11207036,18 3.41788072,17.7188765 3.41788073,17.372093 L3.41788073,16.0074419 C4.63204802,15.7136075 5.47826087,14.7044141 5.47826087,13.5502326 C5.47826087,12.3960511 4.63204802,11.3868576 3.41788073,11.0930233 Z" id="Path"></path>
            </g>
        </g>
    </g>
</svg>