<?xml version="1.0" encoding="UTF-8"?>
<svg width="25px" height="20px" viewBox="0 0 25 20" version="1.1" xmlns="http://www.w3.org/2000/svg" xmlns:xlink="http://www.w3.org/1999/xlink">
    <title>12538188281553239378</title>
    <g id="Page-1" stroke="none" stroke-width="1" fill="none" fill-rule="evenodd" opacity="0.577171689">
        <g id="Program-Dashboard---left-navigation" transform="translate(-27.000000, -163.000000)" fill="#000000" fill-rule="nonzero">
            <g id="12538188281553239378" transform="translate(27.000000, 163.000000)">
                <path d="M23.9614815,8.44518519 L12.8503704,0.364444444 C12.5903704,0.174814815 12.2385185,0.174814815 11.9785185,0.364444444 L0.867407407,8.44518519 C0.537037037,8.68518519 0.463703704,9.14888889 0.704444444,9.47925926 C0.945185185,9.81037037 1.40740741,9.88222222 1.73925926,9.64296296 L3.20148148,8.57925926 L3.20148148,18.7407407 C3.20148148,19.1503704 3.53333333,19.4814815 3.94222222,19.4814815 L9.9237037,19.4814815 C10.3325926,19.4814815 10.6644444,19.1503704 10.6644444,18.7407407 L10.6644444,11.782963 L14.1644444,11.782963 L14.1644444,18.7407407 C14.1644444,19.1503704 14.4962963,19.4814815 14.9051852,19.4814815 L20.8866667,19.4814815 C21.2955556,19.4814815 21.6274074,19.1503704 21.6274074,18.7407407 L21.6274074,8.58 L23.0896296,9.6437037 C23.2214815,9.73925926 23.3740741,9.78518519 23.5244444,9.78518519 C23.7533333,9.78518519 23.9792593,9.67925926 24.1244444,9.48 C24.3659259,9.14962963 24.2918519,8.68592593 23.9614815,8.44518519 Z M20.1459259,18.0007407 L15.6459259,18.0007407 L15.6459259,11.042963 C15.6459259,10.6333333 15.3140741,10.3022222 14.9051852,10.3022222 L9.9237037,10.3022222 C9.51481481,10.3022222 9.18296296,10.6333333 9.18296296,11.042963 L9.18296296,18.0007407 L4.68296296,18.0007407 L4.68296296,7.50222222 L12.4148148,1.87925926 L20.1466667,7.50222222 L20.1466667,18.0007407 L20.1459259,18.0007407 Z" id="Shape"></path>
            </g>
        </g>
    </g>
</svg>