<?xml version="1.0" encoding="UTF-8"?>
<svg width="151px" height="151px" viewBox="0 0 151 151" version="1.1" xmlns="http://www.w3.org/2000/svg" xmlns:xlink="http://www.w3.org/1999/xlink">
    <title>Group 12</title>
    <g id="Page-1" stroke="none" stroke-width="1" fill="none" fill-rule="evenodd">
        <g id="admin-Dashboard----lists" transform="translate(-618.000000, -255.000000)">
            <g id="Group-12" transform="translate(618.000000, 255.000000)">
                <circle id="Oval" fill="#F3F8FF" cx="75.5" cy="75.5" r="75.5"></circle>
                <g id="1388560951582004484" transform="translate(56.000000, 52.000000)" fill-rule="nonzero">
                    <path d="M37.456,33.696 L36.432,28.84 C35.8946022,26.2568953 34.3177706,24.0088252 32.072,22.624 L25.92,18.816 C26.8754755,17.5410403 27.4696475,16.0321198 27.64,14.448 L28.128,9.848 C28.3956776,7.33744513 27.5849445,4.83128459 25.8975548,2.95318632 C24.2101652,1.07508804 21.804784,0.00164946162 19.28,-2.68050184e-07 L18.296,-2.68050184e-07 C15.7698222,-0.000619280337 13.3622849,1.07183659 11.6731198,2.95021255 C9.98395476,4.8285885 9.17217513,7.33605958 9.44,9.848 L9.936,14.448 C10.1063525,16.0321198 10.7005245,17.5410403 11.656,18.816 L5.496,22.624 C3.25022942,24.0088252 1.67339777,26.2568953 1.136,28.84 L0.112,33.696 C-0.21364284,35.2371174 0.173468319,36.842895 1.16557454,38.0663374 C2.15768077,39.2897798 3.64885365,39.9999997 5.224,39.9999997 L32.344,39.9999997 C33.9191464,39.9999997 35.4103192,39.2897798 36.4024255,38.0663374 C37.3945317,36.842895 37.7816428,35.2371174 37.456,33.696 Z M14.648,5.6 C15.5792259,4.56950596 16.9071397,3.98708765 18.296,4 L19.28,4 C20.6712058,3.99870595 21.9972705,4.58932391 22.926926,5.62430982 C23.8565815,6.65929574 24.3020327,8.04090731 24.152,9.424 L23.664,14.016 C23.3966053,16.5075411 21.2938486,18.3967028 18.788,18.3967028 C16.2821514,18.3967028 14.1793947,16.5075411 13.912,14.016 L13.424,9.424 C13.2536767,8.03172104 13.700872,6.63460106 14.648,5.6 Z M33.296,35.52 C33.0677287,35.8128733 32.7152818,35.9816924 32.344,35.9761395 L5.224,35.9761395 C4.85271818,35.9816924 4.50027134,35.8128733 4.272,35.52 C4.03672075,35.2439201 3.93697774,34.8772179 4,34.52 L5.024,29.664 C5.35168807,28.1528104 6.28215031,26.8409164 7.6,26.032 L14.904,21.504 C17.3526948,22.6988008 20.2153052,22.6988008 22.664,21.504 L29.968,26.032 C31.2767515,26.8457045 32.1980651,28.1569156 32.52,29.664 L33.544,34.52 C33.6211771,34.8812841 33.5299264,35.2580613 33.296,35.544 L33.296,35.52 Z" id="Shape" fill="#006EF5"></path>
                    <rect id="Rectangle" fill="#66696C" x="20.384" y="28.8" width="8" height="4" rx="2"></rect>
                </g>
            </g>
        </g>
    </g>
</svg>