<?xml version="1.0" encoding="UTF-8"?>
<svg width="151px" height="151px" viewBox="0 0 151 151" version="1.1" xmlns="http://www.w3.org/2000/svg" xmlns:xlink="http://www.w3.org/1999/xlink">
    <title>Group 9</title>
    <g id="Page-1" stroke="none" stroke-width="1" fill="none" fill-rule="evenodd">
        <g id="admin-Dashboard----lists" transform="translate(-339.000000, -255.000000)">
            <g id="Group-9" transform="translate(339.000000, 255.000000)">
                <circle id="Oval" fill="#F3F8FF" cx="75.5" cy="75.5" r="75.5"></circle>
                <g id="9104314201582004494" transform="translate(56.000000, 52.000000)" fill-rule="nonzero">
                    <path d="M33.536,0 L6.464,0 C2.89403138,0 0,2.89403138 0,6.464 L0,33.536 C0,37.1059686 2.89403138,40 6.464,40 L33.536,40 C37.1059686,40 40,37.1059686 40,33.536 L40,6.464 C40,2.89403138 37.1059686,0 33.536,0 Z M36,33.536 C36,34.8968296 34.8968296,36 33.536,36 L6.464,36 C5.10317038,36 4,34.8968296 4,33.536 L4,6.464 C4,5.10317038 5.10317038,4 6.464,4 L33.536,4 C34.8968296,4 36,5.10317038 36,6.464 L36,33.536 Z" id="Shape" fill="#006EF5"></path>
                    <path d="M30,9.6 L10,9.6 C8.8954305,9.6 8,10.4954305 8,11.6 C8,12.7045695 8.8954305,13.6 10,13.6 L30,13.6 C31.1045695,13.6 32,12.7045695 32,11.6 C32,10.4954305 31.1045695,9.6 30,9.6 L30,9.6 Z M30,18.4 L10,18.4 C8.8954305,18.4 8,19.2954305 8,20.4 C8,21.5045695 8.8954305,22.4 10,22.4 L30,22.4 C31.1045695,22.4 32,21.5045695 32,20.4 C32,19.2954305 31.1045695,18.4 30,18.4 L30,18.4 Z" id="Shape" fill="#006EF5"></path>
                    <rect id="Rectangle" fill="#66696C" x="8" y="27.2" width="20.8" height="4" rx="2"></rect>
                </g>
            </g>
        </g>
    </g>
</svg>