<?xml version="1.0" encoding="UTF-8"?>
<svg width="83px" height="50px" viewBox="0 0 83 50" version="1.1" xmlns="http://www.w3.org/2000/svg" xmlns:xlink="http://www.w3.org/1999/xlink">
    <title>Path</title>
    <g id="Page-1" stroke="none" stroke-width="1" fill="none" fill-rule="evenodd" opacity="0.338616507">
        <g id="Modify-Program-admin" transform="translate(-766.000000, -1033.000000)" fill="#000000" fill-rule="nonzero">
            <g id="Group-12" transform="translate(511.000000, 282.000000)">
                <g id="Group-42" transform="translate(40.000000, 100.000000)">
                    <g id="Group-9-Copy" transform="translate(1.000000, 589.000000)">
                        <g id="2682399761619566459-copy" transform="translate(214.000000, 62.000000)">
                            <path d="M66.4,16.6666667 C64.4633333,16.6666667 62.5266667,16.9444444 60.8666667,17.7777778 C59.76,7.77777778 51.46,0 41.5,0 C31.54,0 23.24,7.77777778 22.1333333,17.7777778 C20.4733333,16.9444444 18.5366667,16.6666667 16.6,16.6666667 C7.47,16.6666667 0,24.1666667 0,33.3333333 C0,42.5 7.47,50 16.6,50 L38.7333333,50 L38.7333333,33.3333333 L32.0933333,38.3333333 C31.54,38.6111111 30.9866667,38.8888889 30.4333333,38.8888889 C29.6033333,38.8888889 28.7733333,38.6111111 28.22,37.7777778 C27.39,36.6666667 27.6666667,34.7222222 28.7733333,33.8888889 L39.84,25.5555556 C40.9466667,24.7222222 42.6066667,24.7222222 43.4366667,25.8333333 L51.7366667,34.1666667 C52.8433333,35.2777778 52.8433333,36.9444444 51.7366667,38.0555556 C50.63,39.1666667 48.97,39.1666667 47.8633333,38.0555556 L44.2666667,34.4444444 L44.2666667,50 L66.4,50 C75.53,50 83,42.5 83,33.3333333 C83,24.1666667 75.53,16.6666667 66.4,16.6666667 Z" id="Path"></path>
                        </g>
                    </g>
                </g>
            </g>
        </g>
    </g>
</svg>