<?xml version="1.0" encoding="UTF-8"?>
<svg width="24px" height="24px" viewBox="0 0 24 24" version="1.1" xmlns="http://www.w3.org/2000/svg" xmlns:xlink="http://www.w3.org/1999/xlink">
    <title>Right</title>
    <defs>
        <path d="M12,23.0526316 C18.1041999,23.0526316 23.0526316,18.1041999 23.0526316,12 C23.0526316,5.89580013 18.1041999,0.947368421 12,0.947368421 C5.89580013,0.947368421 0.947368421,5.89580013 0.947368421,12 C0.947368421,18.1041999 5.89580013,23.0526316 12,23.0526316 Z M12,23.6842105 C5.54698871,23.6842105 0.315789474,18.4530113 0.315789474,12 C0.315789474,5.54698871 5.54698871,0.315789474 12,0.315789474 C18.4530113,0.315789474 23.6842105,5.54698871 23.6842105,12 C23.6842105,18.4530113 18.4530113,23.6842105 12,23.6842105 Z M11.3052632,12.9347368 L7.89473684,12.9347368 L7.89473684,11.5326316 L11.3052632,11.5326316 L11.3052632,7.89473684 L12.7831579,7.89473684 L12.7831579,11.5326316 L16.1936842,11.5326316 L16.1936842,12.9347368 L12.7831579,12.9347368 L12.7831579,16.5726316 L11.3052632,16.5726316 L11.3052632,12.9347368 Z" id="path-1"></path>
    </defs>
    <g id="Page-1" stroke="none" stroke-width="1" fill="none" fill-rule="evenodd">
        <g id="Desktop-HD" transform="translate(-1174.000000, -440.000000)">
            <g id="Group-13" transform="translate(426.000000, 19.000000)">
                <g id="Right" transform="translate(748.000000, 421.000000)">
                    <mask id="mask-2" fill="white">
                        <use xlink:href="#path-1"></use>
                    </mask>
                    <use id="Mask" fill="#979797" fill-rule="nonzero" xlink:href="#path-1"></use>
                    <g id="Group" mask="url(#mask-2)" fill="#006EF5">
                        <g id="Colors">
                            <rect id="Rectangle" x="0" y="0" width="24" height="24"></rect>
                        </g>
                    </g>
                </g>
            </g>
        </g>
    </g>
</svg>