<?xml version="1.0" encoding="UTF-8"?>
<svg width="11px" height="16px" viewBox="0 0 11 16" version="1.1" xmlns="http://www.w3.org/2000/svg" xmlns:xlink="http://www.w3.org/1999/xlink">
    <title>5CC53FDF-2286-40C9-B132-961B21609FA8</title>
    <defs>
        <path d="M8.19642857,9.05092593 L9.03855745,9.05092593 C9.31469982,9.05092593 9.53855745,9.27478355 9.53855745,9.55092593 C9.53855745,9.64072269 9.51437475,9.7288623 9.46854963,9.80608612 L7.31094456,13.4420502 C7.17002348,13.6795283 6.86327031,13.7578033 6.62579219,13.6168822 C6.55379756,13.5741601 6.49368229,13.5140448 6.4509602,13.4420502 L4.29335513,9.80608612 C4.15243405,9.568608 4.230709,9.26185483 4.46818712,9.12093375 C4.54541094,9.07510862 4.63355055,9.05092593 4.72334731,9.05092593 L5.56547619,9.05092593 L5.56547619,9.05092593 L5.56547619,6.7962963 C5.56547619,6.52015392 5.78933382,6.2962963 6.06547619,6.2962963 L7.69642857,6.2962963 C7.97257095,6.2962963 8.19642857,6.52015392 8.19642857,6.7962963 L8.19642857,9.05092593 L8.19642857,9.05092593 Z M1.7202381,5.11574074 L0.878109219,5.11574074 C0.601966844,5.11574074 0.378109219,4.89188312 0.378109219,4.61574074 C0.378109219,4.52594397 0.402291917,4.43780436 0.448117039,4.36058055 L2.60572211,0.724616452 C2.74664319,0.487138328 3.05339636,0.408863382 3.29087448,0.549784466 C3.36286911,0.592506554 3.42298438,0.652621822 3.46570647,0.724616452 L5.62331153,4.36058055 C5.76423262,4.59805867 5.68595767,4.90481184 5.44847955,5.04573292 C5.37125573,5.09155804 5.28311612,5.11574074 5.19331935,5.11574074 L4.35119048,5.11574074 L4.35119048,5.11574074 L4.35119048,7.37037037 C4.35119048,7.64651275 4.12733285,7.87037037 3.85119048,7.87037037 L2.2202381,7.87037037 C1.94409572,7.87037037 1.7202381,7.64651275 1.7202381,7.37037037 L1.7202381,5.11574074 L1.7202381,5.11574074 Z" id="path-1"></path>
    </defs>
    <g id="Page-1" stroke="none" stroke-width="1" fill="none" fill-rule="evenodd">
        <g id="consolidator-archived-buy-window" transform="translate(-259.000000, -455.000000)">
            <g id="Group-5" transform="translate(256.000000, 453.000000)">
                <g id="sort" transform="translate(3.000000, 2.000000)">
                    <g id="primary" transform="translate(0.541667, 0.416667)">
                        <mask id="mask-2" fill="white">
                            <use xlink:href="#path-1"></use>
                        </mask>
                        <use id="Mask" fill="#000000" fill-rule="nonzero" xlink:href="#path-1"></use>
                        <g mask="url(#mask-2)" fill="#006EF5" id="primary-blue">
                            <g transform="translate(5.291667, 6.750000) scale(1, -1) translate(-5.291667, -6.750000) translate(-9.208333, -7.750000)">
                                <rect x="0" y="0" width="28.3333333" height="28.3333333"></rect>
                            </g>
                        </g>
                    </g>
                </g>
            </g>
        </g>
    </g>
</svg>