<?xml version="1.0" encoding="UTF-8"?>
<svg width="151px" height="151px" viewBox="0 0 151 151" version="1.1" xmlns="http://www.w3.org/2000/svg" xmlns:xlink="http://www.w3.org/1999/xlink">
    <title>Group 12</title>
    <g id="Page-1" stroke="none" stroke-width="1" fill="none" fill-rule="evenodd">
        <g id="admin-Dashboard----lists" transform="translate(-895.000000, -255.000000)">
            <g id="Group-12" transform="translate(895.000000, 255.000000)">
                <circle id="Oval" fill="#F3F8FF" cx="75.5" cy="75.5" r="75.5"></circle>
                <g id="14834146041582004492" transform="translate(52.000000, 52.000000)" fill-rule="nonzero">
                    <path d="M37.9818182,8.18181818 L27.2727273,8.18181818 L27.2727273,7.47272727 C27.2727273,3.34565396 23.9270733,0 19.8,0 L7.47272727,0 C3.34565396,0 0,3.34565396 0,7.47272727 L0,32.5272727 C0,36.654346 3.34565396,40 7.47272727,40 L37.9818182,40 C42.1088915,40 45.4545455,36.654346 45.4545455,32.5272727 L45.4545455,15.6545455 C45.4545455,11.5274721 42.1088915,8.18181818 37.9818182,8.18181818 Z M40.9090909,32.5272727 C40.9090909,34.1439608 39.5985063,35.4545455 37.9818182,35.4545455 L7.47272727,35.4545455 C5.85603919,35.4545455 4.54545455,34.1439608 4.54545455,32.5272727 L4.54545455,7.47272727 C4.54545455,5.85603919 5.85603919,4.54545455 7.47272727,4.54545455 L19.8,4.54545455 C21.4166881,4.54545455 22.7272727,5.85603919 22.7272727,7.47272727 L22.7272727,8.18181818 L15,8.18181818 C13.7448074,8.18181818 12.7272727,9.19935284 12.7272727,10.4545455 C12.7272727,11.7097381 13.7448074,12.7272727 15,12.7272727 L37.9818182,12.7272727 C39.5985063,12.7272727 40.9090909,14.0378574 40.9090909,15.6545455 L40.9090909,32.5272727 Z" id="Shape" fill="#006EF5"></path>
                    <rect id="Rectangle" fill="#66696C" x="12.7272727" y="17.2727273" width="23.6363636" height="4.54545455" rx="2.27272727"></rect>
                </g>
            </g>
        </g>
    </g>
</svg>