<?xml version="1.0" encoding="UTF-8"?>
<svg width="151px" height="151px" viewBox="0 0 151 151" version="1.1" xmlns="http://www.w3.org/2000/svg" xmlns:xlink="http://www.w3.org/1999/xlink">
    <title>A8B83DD5-1B57-4C97-9356-93CAB13DA2FC</title>
    <g id="Page-1" stroke="none" stroke-width="1" fill="none" fill-rule="evenodd">
        <g id="admin-Dashboard----lists" transform="translate(-618.000000, -509.000000)">
            <g id="Group-14" transform="translate(618.000000, 509.000000)">
                <circle id="Oval" stroke="#006EF5" stroke-width="3" fill="#F3F8FF" cx="75.5" cy="75.5" r="74"></circle>
                <g id="7770838881582004485" transform="translate(53.000000, 55.000000)" fill-rule="nonzero">
                    <path d="M34.608,7.2 L21.392,7.2 C20.2874305,7.2 19.392,8.0954305 19.392,9.2 C19.392,10.3045695 20.2874305,11.2 21.392,11.2 L34.608,11.2 C34.9438847,11.197058 35.2636066,11.3439607 35.4801607,11.600732 C35.6967148,11.8575033 35.7875692,12.1974267 35.728,12.528 L32.696,27.064 C32.6025412,27.6050582 32.1330706,28.0002242 31.584,27.9999922 L18.624,27.9999922 C18.0749294,28.0002242 17.6054588,27.6050582 17.512,27.064 L13.088,1.6 C12.904178,0.668192917 12.0857621,-0.00263985013 11.136,-7.76378975e-06 L2,-7.76378975e-06 C1.38241699,0.000469337459 0.799689804,0.286227741 0.421180438,0.774223288 C0.042671071,1.26221884 -0.089160809,1.89771014 0.064,2.496 C0.314175223,3.40544639 1.1531412,4.02641333 2.096,3.99999224 L9.504,3.99999224 L13.6,27.744 C14.0254516,30.1907334 16.1406133,31.9825583 18.624,31.9999922 L31.584,31.9999922 C34.0794839,31.9980325 36.2124255,30.2025817 36.64,27.744 L39.672,13.2 C39.9265959,11.7081375 39.5102483,10.1799294 38.5341119,9.02336958 C37.5579754,7.8668098 36.1214308,7.19964802 34.608,7.2 Z" id="Path" fill="#006EF5"></path>
                    <path d="M29.104,18.4 C30.2085695,18.4 31.104,17.5045695 31.104,16.4 C31.104,15.2954305 30.2085695,14.4 29.104,14.4 L22.7039999,14.4 C21.9894688,14.4 21.3292147,14.7811978 20.9719491,15.4 C20.6146835,16.0188021 20.6146835,16.7811979 20.9719491,17.4 C21.3292147,18.0188022 21.9894688,18.4 22.7039999,18.4 L29.104,18.4 Z" id="Path" fill="#006EF5"></path>
                    <g id="Group" transform="translate(16.000000, 20.800000)" fill="#66696C">
                        <circle id="Oval" cx="3.504" cy="16.4" r="2.8"></circle>
                        <circle id="Oval" cx="14.704" cy="16.4" r="2.8"></circle>
                        <path d="M13.504,2 C13.504,0.8954305 12.6085695,0 11.504,0 L7.504,0 C6.3994305,0 5.504,0.8954305 5.504,2 C5.504,3.1045695 6.3994305,4 7.504,4 L11.504,4 C12.6085695,4 13.504,3.1045695 13.504,2 L13.504,2 Z" id="Path"></path>
                    </g>
                </g>
            </g>
        </g>
    </g>
</svg>