<?xml version="1.0" encoding="UTF-8"?>
<svg width="151px" height="151px" viewBox="0 0 151 151" version="1.1" xmlns="http://www.w3.org/2000/svg" xmlns:xlink="http://www.w3.org/1999/xlink">
    <title>Group 14</title>
    <g id="Page-1" stroke="none" stroke-width="1" fill="none" fill-rule="evenodd">
        <g id="admin-Dashboard----lists" transform="translate(-340.000000, -509.000000)">
            <g id="Group-14" transform="translate(340.000000, 509.000000)">
                <circle id="Oval" fill="#F3F8FF" cx="75.5" cy="75.5" r="75.5"></circle>
                <g id="2252295991582004497" transform="translate(55.000000, 52.000000)" fill-rule="nonzero">
                    <path d="M39.88,17.824 C39.7573255,16.7756376 38.8634555,15.9887559 37.808,16 C37.4070778,15.9976843 37.0584031,15.7246654 36.96,15.336 C36.5685659,13.9392302 36.007027,12.5958359 35.288,11.336 C35.0827718,10.9896281 35.1387801,10.5481509 35.424,10.264 C35.8148948,9.86689356 36.0358313,9.33320275 36.04,8.776 C36.0421963,8.31674705 35.8868985,7.87061868 35.6,7.512 C35.192,7.008 34.8,6.528 34.312,6.064 L33.968,5.72 C33.504,5.264 33.024,4.84 32.52,4.432 C31.6911419,3.78308382 30.5074428,3.8587855 29.768,4.608 C29.6047124,4.77160449 29.3831475,4.86368337 29.152,4.864 C28.9922035,4.8639275 28.8351332,4.82259321 28.696,4.744 C27.4361641,4.02497296 26.0927698,3.46343413 24.696,3.072 C24.2828398,2.98376673 23.9906836,2.61437383 24,2.192 C24.0010084,1.68032929 23.8162297,1.18569093 23.48,0.8 C23.1459705,0.417849447 22.6805529,0.175147006 22.176,0.12 C20.7297438,-0.0399761421 19.2702562,-0.0399761421 17.824,0.12 C16.7756376,0.242674461 15.9887559,1.13654445 16,2.192 C15.9976843,2.59292221 15.7246654,2.94159687 15.336,3.04 C13.9392302,3.43143413 12.5958359,3.99297296 11.336,4.712 C10.9896281,4.9172282 10.5481509,4.86121989 10.264,4.576 C9.85544094,4.18735476 9.30751966,3.97972143 8.744,4 C8.28517448,4.00034729 7.83986312,4.15536074 7.48,4.44 C6.976,4.848 6.496,5.24 6.032,5.728 L5.688,6.072 C5.232,6.496 4.8,6.976 4.4,7.48 C3.75476539,8.30999425 3.83029235,9.49096136 4.576,10.232 C4.73960449,10.3952876 4.83168337,10.6168525 4.832,10.848 C4.8319275,11.0077965 4.79059321,11.1648668 4.712,11.304 C3.99297296,12.5638359 3.43143413,13.9072302 3.04,15.304 C2.95422517,15.7053646 2.60238577,15.9941384 2.192,16 C1.68032929,15.9989916 1.18569093,16.1837703 0.8,16.52 C0.417849447,16.8540295 0.175147006,17.3194471 0.12,17.824 C-0.0399761421,19.2702562 -0.0399761421,20.7297438 0.12,22.176 C0.242674461,23.2243624 1.13654445,24.0112441 2.192,24 C2.59292221,24.0023157 2.94159687,24.2753346 3.04,24.664 C3.43143413,26.0607698 3.99297296,27.4041641 4.712,28.664 C4.9172282,29.0103719 4.86121989,29.4518491 4.576,29.736 C4.18735476,30.1445591 3.97972143,30.6924803 4,31.256 C4.00034729,31.7148255 4.15536074,32.1601369 4.44,32.52 C4.848,33.024 5.24,33.504 5.728,33.968 L6.072,34.312 C6.536,34.768 7.016,35.192 7.52,35.6 C8.34999425,36.2452346 9.53096136,36.1697076 10.272,35.424 C10.4352876,35.2603955 10.6568525,35.1683166 10.888,35.168 C11.0477965,35.1680725 11.2048668,35.2094068 11.344,35.288 C12.6038359,36.007027 13.9472302,36.5685659 15.344,36.96 C15.7294911,37.0614648 15.9986343,37.4093816 16,37.808 C15.9989916,38.3196707 16.1837703,38.8143091 16.52,39.2 C16.8540295,39.5821506 17.3194471,39.824853 17.824,39.88 C19.2702562,40.0399761 20.7297438,40.0399761 22.176,39.88 C23.2243624,39.7573255 24.0112441,38.8634555 24,37.808 C24.0023157,37.4070778 24.2753346,37.0584031 24.664,36.96 C26.0607698,36.5685659 27.4041641,36.007027 28.664,35.288 C29.0103719,35.0827718 29.4518491,35.1387801 29.736,35.424 C30.1331064,35.8148948 30.6667972,36.0358313 31.224,36.04 C31.6832529,36.0421963 32.1293813,35.8868985 32.488,35.6 C32.992,35.192 33.472,34.8 33.936,34.312 L34.28,33.968 C34.736,33.504 35.16,33.024 35.568,32.52 C36.2169162,31.6911419 36.1412145,30.5074428 35.392,29.768 C35.2283955,29.6047124 35.1363166,29.3831475 35.136,29.152 C35.1360725,28.9922035 35.1774068,28.8351332 35.256,28.696 C35.975027,27.4361641 36.5365659,26.0927698 36.928,24.696 C37.0162333,24.2828398 37.3856262,23.9906836 37.808,24 C38.3196707,24.0010084 38.8143091,23.8162297 39.2,23.48 C39.5821506,23.1459705 39.824853,22.6805529 39.88,22.176 C40.0399761,20.7297438 40.0399761,19.2702562 39.88,17.824 L39.88,17.824 Z M20,34.4 C12.0470996,34.4 5.6,27.9529004 5.6,20 C5.6,12.0470996 12.0470996,5.6 20,5.6 C27.9529004,5.6 34.4,12.0470996 34.4,20 C34.4,23.8191175 32.8828615,27.4818138 30.1823376,30.1823376 C27.4818138,32.8828615 23.8191175,34.4 20,34.4 Z" id="Shape" fill="#006EF5"></path>
                    <path d="M20,13.6 C23.5346224,13.6 26.4,16.4653776 26.4,20 C26.4,23.5346224 23.5346224,26.4 20,26.4 C16.4653776,26.4 13.6,23.5346224 13.6,20 C13.6,16.4653776 16.4653776,13.6 20,13.6 M20,9.6 C14.2562386,9.6 9.6,14.2562386 9.6,20 C9.6,25.7437614 14.2562386,30.4 20,30.4 C25.7437614,30.4 30.4,25.7437614 30.4,20 C30.4,17.2417485 29.3042889,14.5964678 27.3539105,12.6460895 C25.4035322,10.6957111 22.7582515,9.6 20,9.6 Z" id="Shape" fill="#66696C"></path>
                </g>
            </g>
        </g>
    </g>
</svg>