<?xml version="1.0" encoding="UTF-8"?>
<svg width="151px" height="151px" viewBox="0 0 151 151" version="1.1" xmlns="http://www.w3.org/2000/svg" xmlns:xlink="http://www.w3.org/1999/xlink">
    <title>Group 13</title>
    <g id="Page-1" stroke="none" stroke-width="1" fill="none" fill-rule="evenodd">
        <g id="admin-Dashboard----lists" transform="translate(-1173.000000, -255.000000)">
            <g id="Group-13" transform="translate(1173.000000, 255.000000)">
                <circle id="Oval" fill="#F3F8FF" cx="75.5" cy="75.5" r="75.5"></circle>
                <g id="9478791231582004484" transform="translate(61.000000, 52.000000)" fill-rule="nonzero">
                    <path d="M20.1411765,27.4509804 C20.6007224,27.7094286 21.1449876,27.7719189 21.6511509,27.6243495 C22.1573141,27.47678 22.582721,27.1315865 22.8313725,26.6666667 C25.3568627,21.7647059 27.4509804,16.7294118 27.4509804,13.7254902 C27.4509804,6.14511128 21.3058691,0 13.7254902,0 C6.14511128,0 0,6.14511128 0,13.7254902 C0,19.6078431 8.5254902,33.3098039 12.3215686,38.4313725 C12.7375597,38.9911638 13.3970081,39.3172102 14.0943803,39.3080857 C14.7917525,39.2985722 15.4422531,38.9550209 15.8431373,38.3843137 C16.6823529,37.1843137 17.7568627,35.5294118 18.9254902,33.6156863 C19.199097,33.1577116 19.2759501,32.6085813 19.1385841,32.0930893 C19.001218,31.5775972 18.6612998,31.1395263 18.1960784,30.8784314 C17.2742464,30.3784221 16.1222727,30.6888342 15.5764706,31.5843137 C15.0509804,32.4470588 14.5333333,33.2784314 14.0078431,34.0627451 C9.54509804,27.5529412 3.92156863,17.4117647 3.92156863,13.7254902 C3.92156863,8.31093383 8.31093383,3.92156863 13.7254902,3.92156863 C19.1400466,3.92156863 23.5294118,8.31093383 23.5294118,13.7254902 C23.5294118,15.8980392 21.7098039,20.2823529 19.3490196,24.8470588 C18.8624073,25.7889983 19.2091506,26.9471209 20.1333333,27.4666667 L20.1411765,27.4509804 Z" id="Path" fill="#006EF5"></path>
                    <path d="M13.7254902,10.9803922 C15.241566,10.9803922 16.4705882,12.2094144 16.4705882,13.7254902 C16.4705882,15.241566 15.241566,16.4705882 13.7254902,16.4705882 C12.2094144,16.4705882 10.9803922,15.241566 10.9803922,13.7254902 C10.9803922,12.2094144 12.2094144,10.9803922 13.7254902,10.9803922 M13.7254902,7.05882353 C10.0435919,7.05882353 7.05882353,10.0435919 7.05882353,13.7254902 C7.05882353,17.4073885 10.0435919,20.3921569 13.7254902,20.3921569 C17.4073885,20.3921569 20.3921569,17.4073885 20.3921569,13.7254902 C20.3878349,10.0453835 17.4055968,7.06314544 13.7254902,7.05882353 Z" id="Shape" fill="#66696C"></path>
                </g>
            </g>
        </g>
    </g>
</svg>